# xmcd
#
# Track frame offsets:
#	150
#	11810
#	27366
#	44836
#	58870
#	73506
#	90167
#	103901
#	117522
#	132531
#	147923
#	163129
#	182895
#	197697
#	211596
#	228788
#	242466
#
# Disc length: 3445 seconds
#
# Revision: 0
# Processed by: cddbd v1.5.2PL0 Copyright (c) Steve Scherf et al.
# Submitted via: EasyCDDAExtractor 11.1.0.1
#
DISCID=f40d7311
DTITLE=Various Artist - top 101 glaube liebe hoffnung
DYEAR=1900
DGENRE=schlager
TTITLE0=Felice - Leise erklingen die glocken vomCampanile
TTITLE1=Bianca - Einer wird mich verraten
TTITLE2=Uschi Bauer - Das dorf in dem die armut wohnt
TTITLE3=Stefan Mross - Das lied der hoffnung
TTITLE4=Astrid Harzbecker - Oh Maria schütz die berge
TTITLE5=Stefanie Hertel - Mein schutzengellied
TTITLE6=Wolfgang Edenharder - In der fremde lernt man beten
TTITLE7=Bianca - In Gottes namen
TTITLE8=Claudia Stern - War das schon die ewigkeit
TTITLE9=Orig. Naabtal Duo - Abendfrieden
TTITLE10=Hansi and Maxi Arland - Heimatglocken
TTITLE11=Eberhard Hertel - Lasst uns beten für die liebe
TTITLE12=Bianca - Mein alter steht hoch in den bergen
TTITLE13=Oliver Thomas - Ein zeichen des himmels
TTITLE14=Stefanie Hertel and Stefan Mross - Die trompeten des himmels
TTITLE15=Mühlenhofen Musikanten - Das wunder der liebe
TTITLE16=Orig. Naabtal Duo - An der himmelstuür
EXTD=
EXTT0=
EXTT1=
EXTT2=
EXTT3=
EXTT4=
EXTT5=
EXTT6=
EXTT7=
EXTT8=
EXTT9=
EXTT10=
EXTT11=
EXTT12=
EXTT13=
EXTT14=
EXTT15=
EXTT16=
PLAYORDER=
